<svg width="457" height="427" viewBox="0 0 457 427" fill="none" xmlns="http://www.w3.org/2000/svg">
<g clip-path="url(#clip0_203_4)">
<path d="M348.238 101.471H345.893V37.1992C345.893 27.3333 341.976 17.8716 335.002 10.8954C328.029 3.91919 318.571 0 308.71 0H172.601C162.739 0 153.281 3.91919 146.308 10.8954C139.335 17.8716 135.417 27.3333 135.417 37.1992V389.801C135.417 399.667 139.335 409.128 146.308 416.105C153.281 423.081 162.739 427 172.601 427H308.712C318.574 427 328.032 423.081 335.005 416.105C341.978 409.128 345.896 399.667 345.896 389.801V147.221H348.238V101.471Z" fill="#3F3D56"/>
<path d="M338.315 34.7099V392.292C338.313 399.772 335.343 406.945 330.057 412.235C324.77 417.525 317.601 420.498 310.124 420.501H171.215C163.735 420.501 156.561 417.529 151.271 412.239C145.981 406.948 143.008 399.772 143.007 392.289V34.7099C143.009 27.2272 145.982 20.0518 151.272 14.7619C156.562 9.47199 163.736 6.5007 171.215 6.50153H188.065C187.238 8.53706 186.923 10.7447 187.148 12.9305C187.374 15.1163 188.132 17.2132 189.357 19.0371C190.582 20.8609 192.236 22.3557 194.174 23.3902C196.112 24.4247 198.274 24.9672 200.471 24.9699H279.663C281.86 24.9669 284.022 24.4242 285.96 23.3894C287.898 22.3546 289.552 20.8594 290.776 19.0353C292.001 17.2112 292.759 15.114 292.984 12.9281C293.209 10.7422 292.894 8.53448 292.066 6.49902H310.116C317.592 6.50035 324.763 9.47194 330.05 14.7605C335.338 20.0491 338.309 27.2218 338.312 34.7017L338.315 34.7099Z" fill="#E6E6E6"/>
<path d="M323.514 401.835H157.807C156.393 401.834 155.037 401.271 154.037 400.27C153.036 399.269 152.474 397.913 152.472 396.498V47.9908C152.474 46.5757 153.036 45.219 154.037 44.2184C155.037 43.2177 156.393 42.6549 157.807 42.6533H323.514C324.929 42.6549 326.285 43.2177 327.285 44.2184C328.285 45.219 328.848 46.5757 328.849 47.9908V396.498C328.848 397.913 328.285 399.269 327.285 400.27C326.285 401.271 324.929 401.834 323.514 401.835Z" fill="white"/>
<path d="M240.033 160.317C265.247 160.317 285.688 139.869 285.688 114.644C285.688 89.4186 265.247 68.9697 240.033 68.9697C214.819 68.9697 194.378 89.4186 194.378 114.644C194.378 139.869 214.819 160.317 240.033 160.317Z" fill="#E6E6E6"/>
<path d="M239.406 154.134C261.206 154.134 278.88 136.454 278.88 114.644C278.88 92.8338 261.206 75.1533 239.406 75.1533C217.605 75.1533 199.932 92.8338 199.932 114.644C199.932 136.454 217.605 154.134 239.406 154.134Z" fill="white"/>
<path d="M240.284 92.2451C235.833 92.2451 231.482 93.5656 227.781 96.0396C224.08 98.5137 221.195 102.03 219.491 106.144C217.788 110.258 217.342 114.786 218.211 119.153C219.079 123.521 221.223 127.533 224.37 130.681C227.518 133.83 231.528 135.975 235.894 136.843C240.259 137.712 244.785 137.266 248.897 135.562C253.009 133.858 256.524 130.972 258.997 127.269C261.47 123.567 262.79 119.214 262.79 114.761C262.79 108.789 260.419 103.062 256.198 98.8397C251.978 94.6173 246.253 92.2451 240.284 92.2451ZM240.284 98.9999C241.62 98.9999 242.925 99.396 244.035 100.138C245.146 100.88 246.011 101.935 246.522 103.17C247.033 104.404 247.167 105.762 246.906 107.072C246.646 108.383 246.003 109.586 245.059 110.531C244.114 111.476 242.911 112.119 241.602 112.38C240.292 112.64 238.934 112.506 237.7 111.995C236.467 111.484 235.412 110.618 234.67 109.507C233.928 108.397 233.532 107.091 233.532 105.755C233.532 104.868 233.707 103.989 234.046 103.17C234.386 102.35 234.883 101.606 235.51 100.978C236.137 100.351 236.881 99.8535 237.7 99.514C238.52 99.1746 239.398 98.9999 240.284 98.9999ZM240.284 131.517C237.617 131.505 234.993 130.842 232.64 129.586C230.287 128.329 228.275 126.518 226.78 124.308C226.888 119.805 235.783 117.326 240.284 117.326C244.786 117.326 253.68 119.805 253.788 124.308C252.292 126.516 250.28 128.327 247.927 129.584C245.575 130.84 242.951 131.504 240.284 131.519V131.517Z" fill="#262254"/>
<path d="M277.711 175.666H198.726V181.605H277.711V175.666Z" fill="#E6E6E6"/>
<path d="M287.562 191.099H188.158V197.038H287.562V191.099Z" fill="#E6E6E6"/>
<path d="M310.676 235.429H170.646V375.518H310.676V235.429Z" fill="#E6E6E6"/>
<path d="M306.978 238.393H172.872V372.555H306.978V238.393Z" fill="white"/>
<path d="M252.692 251.344H200.49V255.269H252.692V251.344Z" fill="#E6E6E6"/>
<path d="M281.102 262.868H200.49V266.793H281.102V262.868Z" fill="#262254"/>
<path d="M267.025 273.842H201.328V277.767H267.025V273.842Z" fill="#E6E6E6"/>
<path d="M238.843 285.884H200.49V289.809H238.843V285.884Z" fill="#E6E6E6"/>
<path d="M258.374 297.646H200.49V301.571H258.374V297.646Z" fill="#262254"/>
<path d="M252.692 309.481H200.49V313.407H252.692V309.481Z" fill="#E6E6E6"/>
<path d="M281.102 321.004H200.49V324.929H281.102V321.004Z" fill="#262254"/>
<path d="M267.025 331.979H201.328V335.904H267.025V331.979Z" fill="#E6E6E6"/>
<path d="M238.843 344.021H200.49V347.946H238.843V344.021Z" fill="#E6E6E6"/>
<path d="M258.374 355.783H200.49V359.708H258.374V355.783Z" fill="#E6E6E6"/>
<path d="M434.835 304.568C434.461 305.221 433.963 305.795 433.367 306.256C432.772 306.717 432.092 307.056 431.366 307.254C430.64 307.452 429.882 307.504 429.136 307.409C428.389 307.314 427.669 307.073 427.015 306.699C426.362 306.325 425.789 305.827 425.328 305.231C424.867 304.636 424.528 303.956 424.331 303.229C424.133 302.503 424.08 301.745 424.175 300.998C424.27 300.251 424.511 299.53 424.885 298.876C424.898 298.854 424.911 298.832 424.924 298.81C425.084 298.541 425.264 298.285 425.463 298.044L420.643 263.67L420.499 262.64L419.519 255.626L419.375 254.615L419.909 254.64L429.248 255.067L431.753 255.18L432.067 261.579L433.843 297.554C434.771 298.442 435.373 299.617 435.553 300.889C435.733 302.161 435.48 303.457 434.835 304.568Z" fill="#FFB8B8"/>
<path d="M420.526 262.951L432.386 261.863C433.001 261.805 433.568 261.505 433.964 261.031C434.359 260.556 434.551 259.944 434.497 259.328L432.301 234.655C432.196 233.478 431.86 232.334 431.313 231.287C430.766 230.24 430.018 229.311 429.112 228.553C428.206 227.796 427.16 227.224 426.033 226.871C424.906 226.517 423.721 226.39 422.545 226.495C421.368 226.6 420.224 226.935 419.178 227.483C418.131 228.03 417.203 228.778 416.446 229.685C415.688 230.591 415.117 231.638 414.763 232.765C414.41 233.892 414.283 235.078 414.388 236.255C414.403 236.425 414.423 236.594 414.448 236.763L418.004 260.964C418.086 261.518 418.364 262.025 418.787 262.391C419.211 262.758 419.752 262.96 420.313 262.961C420.384 262.962 420.455 262.959 420.526 262.951Z" fill="#262254"/>
<path d="M429.516 243.018C430.715 239.619 430.771 235.921 429.674 232.487C428.577 229.053 426.388 226.073 423.441 223.999C418.968 220.938 412.849 219.839 406.258 227.689C393.077 243.387 389.625 260.655 389.625 260.655L416.615 265.051C416.615 265.051 425.793 253.827 429.516 243.018Z" fill="#262254"/>
<path d="M385.863 419.85H378.167L374.507 390.156H385.864L385.863 419.85Z" fill="#FFB8B8"/>
<path d="M363.329 426.999H387.514V417.65H372.673C370.195 417.65 367.818 418.635 366.065 420.388C364.313 422.142 363.329 424.519 363.329 426.999Z" fill="#2F2E41"/>
<path d="M449.129 413.136L441.823 415.553L429.031 388.508L439.814 384.942L449.129 413.136Z" fill="#FFB8B8"/>
<path d="M429.974 426.998L452.937 419.405L450.005 410.529L435.914 415.189C434.749 415.574 433.671 416.185 432.742 416.987C431.813 417.789 431.051 418.766 430.499 419.863C429.948 420.959 429.617 422.154 429.527 423.378C429.437 424.603 429.589 425.833 429.974 426.998Z" fill="#2F2E41"/>
<path d="M412.573 216.214C421.087 216.214 427.989 209.309 427.989 200.791C427.989 192.273 421.087 185.368 412.573 185.368C404.059 185.368 397.157 192.273 397.157 200.791C397.157 209.309 404.059 216.214 412.573 216.214Z" fill="#FFB8B8"/>
<path d="M399.075 411.585L406.221 364.399C406.297 363.895 406.546 363.434 406.925 363.093C407.303 362.753 407.789 362.555 408.297 362.532C408.806 362.51 409.306 362.665 409.713 362.971C410.12 363.277 410.408 363.715 410.528 364.21L421.411 409.178C421.582 409.867 422.005 410.467 422.596 410.86C423.187 411.254 423.903 411.412 424.604 411.304L454.623 406.478C455.021 406.414 455.401 406.265 455.737 406.042C456.073 405.819 456.357 405.527 456.571 405.185C456.785 404.843 456.923 404.459 456.976 404.059C457.029 403.659 456.995 403.253 456.878 402.867L417.736 273.762C417.625 273.395 417.612 273.006 417.698 272.632L419.001 266.981C419.144 266.368 419.078 265.725 418.813 265.154C418.548 264.584 418.1 264.118 417.54 263.832C412.21 261.111 398.71 255.455 388.522 261.651C388.191 261.852 387.905 262.119 387.681 262.435C387.456 262.751 387.299 263.11 387.217 263.489L356.639 407.268C356.556 407.659 356.557 408.063 356.641 408.454C356.726 408.845 356.892 409.213 357.129 409.535C357.366 409.856 357.669 410.124 358.018 410.32C358.366 410.516 358.752 410.635 359.15 410.671L396.03 413.975C396.114 413.983 396.198 413.986 396.281 413.986C396.957 413.985 397.609 413.743 398.121 413.302C398.633 412.862 398.971 412.252 399.073 411.585L399.075 411.585Z" fill="#2F2E41"/>
<path d="M422.795 189.894C421.633 189.195 420.602 188.298 419.748 187.244C419.326 186.712 419.049 186.08 418.942 185.409C418.835 184.738 418.903 184.051 419.139 183.414C419.918 181.695 422.232 181.153 424.026 181.737C425.82 182.32 427.205 183.729 428.516 185.086C429.67 186.279 430.858 187.53 431.403 189.099C431.949 190.668 431.669 192.658 430.307 193.61C428.97 194.545 427.048 194.162 425.763 193.159C424.478 192.156 423.682 190.666 422.923 189.222L422.795 189.894Z" fill="#2F2E41"/>
<path d="M428.017 185.5C428.102 181.155 433.054 178.038 437.33 178.809C441.606 179.579 444.893 183.226 446.538 187.249C450.014 195.748 447.405 205.446 444.055 213.999C440.706 222.552 436.561 231.229 437.05 240.4C437.381 245.356 439.043 250.131 441.862 254.221C444.681 258.31 448.552 261.562 453.065 263.633C448.24 265.822 442.471 263.561 438.416 260.15C429.41 252.573 425.934 239.085 430.155 228.097C432.237 222.677 435.906 218.04 438.771 212.991C441.636 207.942 443.738 201.991 442.258 196.377C440.779 190.762 434.485 186.217 429.104 188.389L428.017 185.5Z" fill="#2F2E41"/>
<path d="M411.648 207.635C412.992 205.363 414.347 202.381 411.892 200.394C411.358 199.982 410.746 199.681 410.094 199.509C409.442 199.336 408.762 199.296 408.094 199.39C405.325 199.724 402.309 199.861 399.628 198.855C398.623 198.509 397.697 197.964 396.906 197.253C396.115 196.542 395.475 195.679 395.024 194.716C393.643 191.436 395.373 187.45 398.266 185.376C400.036 184.154 402.127 183.481 404.278 183.443C406.428 183.405 408.542 184.003 410.354 185.162C414.101 183.506 418.647 184.243 422.052 186.522C425.456 188.801 427.786 192.452 429.051 196.349C430.217 199.704 430.418 203.319 429.63 206.783C428.997 209.192 427.793 211.413 426.119 213.258C424.446 215.103 422.353 216.517 420.017 217.382C419.107 217.741 418.119 217.854 417.152 217.711C416.184 217.568 415.271 217.173 414.505 216.565C414.505 216.565 412.38 214.71 411.715 212.475C411.204 210.756 410.931 208.849 411.648 207.635Z" fill="#2F2E41"/>
<path d="M365.915 221.397C365.992 221.736 366.042 222.08 366.065 222.427L393.028 237.989L399.581 234.214L406.568 243.364L395.615 251.175C394.73 251.806 393.664 252.133 392.578 252.106C391.491 252.08 390.443 251.701 389.589 251.028L361.783 229.084C360.528 229.549 359.161 229.621 357.864 229.29C356.567 228.958 355.402 228.24 354.523 227.23C353.644 226.22 353.094 224.966 352.944 223.636C352.795 222.305 353.055 220.96 353.688 219.781C354.322 218.601 355.299 217.642 356.49 217.032C357.682 216.422 359.031 216.189 360.358 216.364C361.685 216.54 362.927 217.116 363.919 218.015C364.911 218.914 365.606 220.093 365.911 221.397H365.915Z" fill="#FFB8B8"/>
<path d="M393.93 238.726L402.644 250.025C402.892 250.346 403.206 250.61 403.565 250.799C403.924 250.987 404.32 251.097 404.725 251.119C405.13 251.141 405.535 251.076 405.912 250.927C406.29 250.779 406.631 250.551 406.912 250.259L416.778 240.01C418.447 238.768 419.554 236.912 419.856 234.852C420.158 232.793 419.63 230.697 418.388 229.027C417.145 227.357 415.291 226.249 413.232 225.947C411.173 225.645 409.078 226.174 407.409 227.417C407.324 227.48 407.24 227.545 407.157 227.612L394.785 234.534C394.43 234.732 394.123 235.004 393.883 235.332C393.644 235.66 393.478 236.035 393.397 236.433C393.315 236.831 393.321 237.242 393.412 237.637C393.504 238.033 393.68 238.404 393.928 238.726L393.93 238.726Z" fill="#262254"/>
<path d="M77.6442 265.654C77.3363 265.795 77.0401 265.96 76.7586 266.148L48.606 254.128L47.6018 246.709L36.3525 246.64L37.0172 263.657L74.1757 273.489C74.254 273.747 74.3479 274.001 74.4569 274.248C74.9942 275.395 75.8582 276.357 76.9404 277.014C78.0227 277.672 79.275 277.994 80.5399 277.942C81.8049 277.889 83.0262 277.464 84.0504 276.72C85.0746 275.975 85.8561 274.944 86.2967 273.757C86.7373 272.57 86.8174 271.278 86.5269 270.046C86.2364 268.813 85.5882 267.693 84.6639 266.828C83.7395 265.962 82.5801 265.389 81.3313 265.181C80.0826 264.973 78.8 265.138 77.6449 265.656L77.6442 265.654Z" fill="#A0616A"/>
<path d="M32.2615 419.85H39.9568L43.6174 390.156H32.2603L32.2615 419.85Z" fill="#A0616A"/>
<path d="M45.4536 417.651H30.6128V426.996H54.7978C54.7978 424.516 53.8133 422.139 52.061 420.385C50.3086 418.632 47.9318 417.647 45.4536 417.647H45.4535L45.4536 417.651Z" fill="#2F2E41"/>
<path d="M2.33398 417.675L9.99165 418.428L16.5452 389.237L5.24264 388.126L2.33398 417.675Z" fill="#A0616A"/>
<path d="M15.6823 416.781L0.915732 415.326L0 424.628L24.0634 426.999C24.1837 425.777 24.0623 424.544 23.7062 423.369C23.35 422.195 22.7661 421.102 21.9878 420.153C21.2095 419.204 20.252 418.418 19.17 417.84C18.088 417.261 16.9027 416.901 15.6817 416.781L15.6823 416.781Z" fill="#2F2E41"/>
<path d="M30.1195 215.214C38.6337 215.214 45.5359 208.309 45.5359 199.791C45.5359 191.273 38.6337 184.368 30.1195 184.368C21.6053 184.368 14.7031 191.273 14.7031 199.791C14.7031 208.309 21.6053 215.214 30.1195 215.214Z" fill="#A0616A"/>
<path d="M41.6766 413.846C42.3381 413.847 42.979 413.615 43.486 413.19C43.9931 412.765 44.3337 412.174 44.4478 411.522C48.4279 389.407 61.4503 317.08 61.7616 315.075C61.7686 315.029 61.772 314.982 61.7716 314.936V309.543C61.7722 309.347 61.7109 309.155 61.5965 308.995L59.8767 306.585C59.7949 306.469 59.6877 306.374 59.5632 306.306C59.4388 306.238 59.3003 306.199 59.1586 306.193C49.3531 305.733 17.2399 304.385 15.6883 306.324C14.1304 308.271 14.684 314.178 14.8095 315.341L14.8032 315.463L0.37609 407.77C0.263077 408.506 0.444394 409.257 0.8808 409.861C1.31721 410.464 1.97359 410.871 2.70791 410.994L11.7188 412.479C12.3899 412.587 13.0774 412.45 13.6563 412.094C14.2351 411.738 14.6668 411.185 14.8729 410.537C17.6598 401.628 27.0053 371.656 30.2441 360.059C30.2648 359.986 30.3112 359.923 30.3748 359.881C30.4384 359.84 30.5149 359.823 30.59 359.834C30.6651 359.844 30.7339 359.882 30.7835 359.939C30.8331 359.997 30.8602 360.07 30.8598 360.146C30.6979 371.202 30.3069 399.407 30.1694 409.149L30.1549 410.198C30.149 410.908 30.4096 411.595 30.8853 412.122C31.361 412.65 32.0171 412.98 32.724 413.046L41.413 413.834C41.5006 413.842 41.5886 413.846 41.6766 413.846Z" fill="#2F2E41"/>
<path d="M39.9035 221.279C42.5937 222.879 44.2037 225.819 45.1276 228.814C46.8379 234.353 47.8673 240.08 48.1932 245.868L49.1699 263.199L61.2558 309.146C50.7805 318.013 44.7385 315.997 30.6371 308.744C16.5357 301.492 14.9251 311.163 14.9251 311.163L12.1056 272.068L8.07715 229.348C8.98157 228.259 10.0052 227.274 11.1289 226.413C14.8524 223.516 19.1847 221.502 23.7993 220.523C28.4138 219.544 33.1903 219.626 37.7688 220.762L39.9035 221.279Z" fill="#CDCDCD"/>
<path d="M43.829 274.933C43.5041 275.055 43.1893 275.202 42.8875 275.373L15.05 261.432L14.5881 253.881L3.10535 253.089L2.49023 270.303L39.6901 282.61C39.9936 283.914 40.6868 285.095 41.6776 285.995C42.6683 286.896 43.9095 287.473 45.2362 287.65C46.5629 287.828 47.912 287.597 49.1042 286.988C50.2965 286.379 51.2752 285.422 51.9103 284.243C52.5453 283.065 52.8065 281.72 52.6593 280.39C52.512 279.059 51.9631 277.804 51.0857 276.793C50.2083 275.782 49.044 275.062 47.7476 274.729C46.4512 274.396 45.0841 274.466 43.8284 274.929L43.829 274.933Z" fill="#A0616A"/>
<path d="M8.27826 229.54C1.42968 231.959 0.222656 258.158 0.222656 258.158C8.28014 253.725 17.9489 260.98 17.9489 260.98C17.9489 260.98 19.9631 254.127 22.3803 245.261C23.1102 242.767 23.1975 240.129 22.634 237.592C22.0706 235.055 20.8747 232.702 19.1578 230.752C19.1578 230.752 15.1275 227.121 8.27826 229.54Z" fill="#CDCDCD"/>
<path d="M16.2991 203.87C18.2198 202.333 20.8403 205.126 20.8403 205.126L22.3768 191.292C22.3768 191.292 31.9803 192.443 38.1278 190.907C44.2752 189.372 45.2349 196.48 45.2349 196.48C45.5518 193.609 45.6161 190.715 45.427 187.833C45.0429 184.374 40.0491 180.915 31.2133 178.609C22.3775 176.303 17.7678 186.296 17.7678 186.296C11.6179 189.369 14.3759 205.407 16.2991 203.87Z" fill="#2F2E41"/>
</g>
<defs>
<clipPath id="clip0_203_4">
<rect width="457" height="427" fill="white"/>
</clipPath>
</defs>
</svg>
